<svg width="120" height="35" viewBox="0 0 120 35" fill="none" xmlns="http://www.w3.org/2000/svg">
<path d="M96.6404 20.3237V15.4746H120V20.3237H96.6404ZM105.546 29.0894V6.47583H111.048V29.0894H105.546Z" fill="#C30A11"/>
<path d="M91.1282 34.4978V3.67804H96.8632V34.4978H91.1282ZM85.8237 15.49L85.7428 9.92592H102.225V15.49H85.8237Z" fill="white"/>
<path d="M74.6325 34.5032V7.73991C74.6325 6.24788 74.9589 4.92681 75.6116 3.7767C76.2644 2.59551 77.1658 1.67853 78.3159 1.02577C79.466 0.341924 80.8027 0 82.3258 0C83.3826 0 84.3618 0.186503 85.2632 0.559509C86.1646 0.901434 86.9262 1.38324 87.5479 2.00492L85.7761 6.34113C85.372 5.99921 84.9368 5.73499 84.4706 5.54849C84.0354 5.36199 83.6158 5.26873 83.2117 5.26873C82.59 5.26873 82.0616 5.37753 81.6264 5.59512C81.2223 5.78162 80.9114 6.07692 80.6939 6.48101C80.5074 6.8851 80.4141 7.3669 80.4141 7.92641V34.5032H77.5233C76.9638 34.5032 76.4354 34.5032 75.938 34.5032C75.4718 34.5032 75.0366 34.5032 74.6325 34.5032ZM70.8092 15.4798L70.7371 9.92342H85.9911L85.9626 15.4798H70.8092Z" fill="white"/>
<path d="M56.9381 34.9694C54.9176 34.9694 53.0836 34.4099 51.4362 33.2909C49.7887 32.1719 48.4677 30.6488 47.473 28.7216C46.4783 26.7943 45.981 24.6029 45.981 22.1473C45.981 19.6917 46.4783 17.5002 47.473 15.573C48.4677 13.6458 49.8198 12.1382 51.5294 11.0503C53.2391 9.96237 55.1663 9.4184 57.3111 9.4184C58.5544 9.4184 59.689 9.6049 60.7148 9.97791C61.7405 10.3198 62.642 10.8172 63.4191 11.4699C64.1962 12.1227 64.8334 12.8687 65.3307 13.708C65.8592 14.5473 66.2166 15.4487 66.4031 16.4123L65.1442 16.0859V9.93128H70.9259V34.5032H65.0976V28.6283L66.4498 28.3952C66.2322 29.2344 65.8281 30.0582 65.2375 30.8664C64.678 31.6434 63.963 32.3428 63.0927 32.9645C62.2534 33.5551 61.3054 34.0369 60.2485 34.4099C59.2227 34.7829 58.1193 34.9694 56.9381 34.9694ZM58.5233 29.8872C59.86 29.8872 61.0411 29.5608 62.0669 28.9081C63.0927 28.2553 63.8853 27.3539 64.4448 26.2037C65.0354 25.0226 65.3307 23.6704 65.3307 22.1473C65.3307 20.6553 65.0354 19.3342 64.4448 18.1841C63.8853 17.034 63.0927 16.1325 62.0669 15.4798C61.0411 14.827 59.86 14.5006 58.5233 14.5006C57.1867 14.5006 56.0055 14.827 54.9798 15.4798C53.9851 16.1325 53.208 17.034 52.6485 18.1841C52.089 19.3342 51.8092 20.6553 51.8092 22.1473C51.8092 23.6704 52.089 25.0226 52.6485 26.2037C53.208 27.3539 53.9851 28.2553 54.9798 28.9081C56.0055 29.5608 57.1867 29.8872 58.5233 29.8872Z" fill="white"/>
<path d="M31.6721 34.5032V9.93128H37.3139L37.4071 17.7644L36.6145 15.9927C36.9564 14.7493 37.547 13.6303 38.3863 12.6356C39.2255 11.6409 40.1891 10.8638 41.2771 10.3043C42.3961 9.71369 43.5617 9.4184 44.774 9.4184C45.3024 9.4184 45.7998 9.46502 46.266 9.55828C46.7634 9.65153 47.1675 9.76032 47.4783 9.88466L45.9397 16.1792C45.5977 15.9927 45.1781 15.8372 44.6808 15.7129C44.1834 15.5886 43.6861 15.5264 43.1887 15.5264C42.4116 15.5264 41.6656 15.6818 40.9507 15.9927C40.2668 16.2724 39.6607 16.6765 39.1323 17.2049C38.6038 17.7334 38.1842 18.355 37.8734 19.07C37.5936 19.7538 37.4537 20.5309 37.4537 21.4013V34.5032H31.6721Z" fill="white"/>
<path d="M0 34.5032V1.86499H13.1019C15.4643 1.86499 17.5935 2.25354 19.4897 3.03064C21.4169 3.80774 23.0643 4.92676 24.432 6.38771C25.8308 7.84866 26.8876 9.57382 27.6026 11.5632C28.3486 13.5526 28.7216 15.7595 28.7216 18.1841C28.7216 20.6086 28.3486 22.8311 27.6026 24.8516C26.8876 26.841 25.8463 28.5661 24.4786 30.0271C23.1109 31.4569 21.4635 32.5604 19.5363 33.3375C17.6091 34.1146 15.4643 34.5032 13.1019 34.5032H0ZM6.06138 29.794L5.59512 28.9081H12.8688C14.3919 28.9081 15.744 28.6594 16.9252 28.162C18.1375 27.6647 19.1633 26.9498 20.0025 26.0173C20.8418 25.0847 21.479 23.9657 21.9142 22.6602C22.3494 21.3236 22.567 19.8315 22.567 18.1841C22.567 16.5366 22.3494 15.0601 21.9142 13.7546C21.479 12.418 20.8263 11.2834 19.9559 10.3509C19.1167 9.4184 18.1064 8.70347 16.9252 8.20612C15.744 7.70878 14.3919 7.46011 12.8688 7.46011H5.45524L6.06138 6.66747V29.794Z" fill="white"/>
</svg>
