<svg width="73" height="24" viewBox="0 0 73 24" fill="none" xmlns="http://www.w3.org/2000/svg">
<path d="M6.00001 13.87C4.98597 13.6523 4.09615 13.0492 3.51826 12.1879C2.94036 11.3267 2.71958 10.2747 2.90249 9.25376C3.0854 8.23286 3.65769 7.32292 4.49864 6.71588C5.33959 6.10884 6.38345 5.85218 7.41001 6.00003C7.66264 5.42666 8.01856 4.90465 8.46001 4.46003C8.92447 3.99439 9.47623 3.62497 10.0837 3.3729C10.6911 3.12084 11.3423 2.99109 12 2.99109C12.6577 2.99109 13.3089 3.12084 13.9163 3.3729C14.5238 3.62497 15.0756 3.99439 15.54 4.46003C15.9815 4.90465 16.3374 5.42666 16.59 6.00003C17.6166 5.85218 18.6604 6.10884 19.5014 6.71588C20.3423 7.32292 20.9146 8.23286 21.0975 9.25376C21.2804 10.2747 21.0597 11.3267 20.4818 12.1879C19.9039 13.0492 19.0141 13.6523 18 13.87V21H6.00001V13.87Z" stroke="#C30A11" stroke-width="2" stroke-linecap="round" stroke-linejoin="round"/>
<path d="M6 17H18" stroke="#C30A11" stroke-width="2" stroke-linecap="round" stroke-linejoin="round"/>
<path d="M63.3081 13.096V11.224H72.3261V13.096H63.3081ZM66.7461 16.48V7.75H68.8701V16.48H66.7461Z" fill="#C30A11"/>
<path d="M61.1801 18.5679V6.66992H63.3941V18.5679H61.1801ZM59.1323 11.2299L59.1011 9.08192H65.4641V11.2299H59.1323Z" fill="white"/>
<path d="M54.8119 18.57V8.238C54.8119 7.662 54.9379 7.152 55.1899 6.708C55.4419 6.252 55.7899 5.898 56.2339 5.646C56.6779 5.382 57.1939 5.25 57.7819 5.25C58.1899 5.25 58.5679 5.322 58.9159 5.466C59.2639 5.598 59.5579 5.784 59.7979 6.024L59.1139 7.698C58.9579 7.566 58.7899 7.464 58.6099 7.392C58.4419 7.32 58.2799 7.284 58.1239 7.284C57.8839 7.284 57.6799 7.326 57.5119 7.41C57.3559 7.482 57.2359 7.596 57.1519 7.752C57.0799 7.908 57.0439 8.094 57.0439 8.31V18.57H55.9279C55.7119 18.57 55.5079 18.57 55.3159 18.57C55.1359 18.57 54.9679 18.57 54.8119 18.57ZM53.3359 11.226L53.3081 9.08095H59.1969L59.1859 11.226H53.3359Z" fill="white"/>
<path d="M47.981 18.75C47.201 18.75 46.493 18.534 45.857 18.102C45.221 17.67 44.711 17.082 44.327 16.338C43.943 15.594 43.751 14.748 43.751 13.8C43.751 12.852 43.943 12.006 44.327 11.262C44.711 10.518 45.233 9.93599 45.893 9.51599C46.553 9.09599 47.297 8.88599 48.125 8.88599C48.605 8.88599 49.043 8.95799 49.439 9.10199C49.835 9.23399 50.183 9.42599 50.483 9.67799C50.783 9.92999 51.029 10.218 51.221 10.542C51.425 10.866 51.563 11.214 51.635 11.586L51.149 11.46V9.08399H53.381V18.57H51.131V16.302L51.653 16.212C51.569 16.536 51.413 16.854 51.185 17.166C50.969 17.466 50.693 17.736 50.357 17.976C50.033 18.204 49.667 18.39 49.259 18.534C48.863 18.678 48.437 18.75 47.981 18.75ZM48.593 16.788C49.109 16.788 49.565 16.662 49.961 16.41C50.357 16.158 50.663 15.81 50.879 15.366C51.107 14.91 51.221 14.388 51.221 13.8C51.221 13.224 51.107 12.714 50.879 12.27C50.663 11.826 50.357 11.478 49.961 11.226C49.565 10.974 49.109 10.848 48.593 10.848C48.077 10.848 47.621 10.974 47.225 11.226C46.841 11.478 46.541 11.826 46.325 12.27C46.109 12.714 46.001 13.224 46.001 13.8C46.001 14.388 46.109 14.91 46.325 15.366C46.541 15.81 46.841 16.158 47.225 16.41C47.621 16.662 48.077 16.788 48.593 16.788Z" fill="white"/>
<path d="M38.2271 18.57V9.08399H40.4051L40.4411 12.108L40.1351 11.424C40.2671 10.944 40.4951 10.512 40.8191 10.128C41.1431 9.74399 41.515 9.44399 41.9351 9.22799C42.367 8.99999 42.8171 8.88599 43.2851 8.88599C43.4891 8.88599 43.6811 8.90399 43.8611 8.93999C44.0531 8.97599 44.2091 9.01799 44.3291 9.06599L43.7351 11.496C43.6031 11.424 43.4411 11.364 43.2491 11.316C43.0571 11.268 42.8651 11.244 42.6731 11.244C42.3731 11.244 42.0851 11.304 41.8091 11.424C41.5451 11.532 41.3111 11.688 41.1071 11.892C40.9031 12.096 40.7411 12.336 40.6211 12.612C40.5131 12.876 40.4591 13.176 40.4591 13.512V18.57H38.2271Z" fill="white"/>
<path d="M26 18.57V5.96997H31.058C31.97 5.96997 32.792 6.11997 33.524 6.41997C34.268 6.71997 34.904 7.15197 35.432 7.71597C35.972 8.27997 36.38 8.94597 36.656 9.71397C36.944 10.482 37.088 11.334 37.088 12.27C37.088 13.206 36.944 14.064 36.656 14.844C36.38 15.612 35.978 16.278 35.45 16.842C34.922 17.394 34.286 17.82 33.542 18.12C32.798 18.42 31.97 18.57 31.058 18.57H26ZM28.34 16.752L28.16 16.41H30.968C31.556 16.41 32.078 16.314 32.534 16.122C33.002 15.93 33.398 15.654 33.722 15.294C34.046 14.934 34.292 14.502 34.46 13.998C34.628 13.482 34.712 12.906 34.712 12.27C34.712 11.634 34.628 11.064 34.46 10.56C34.292 10.044 34.04 9.60597 33.704 9.24597C33.38 8.88597 32.99 8.60997 32.534 8.41797C32.078 8.22597 31.556 8.12997 30.968 8.12997H28.106L28.34 7.82397V16.752Z" fill="white"/>
</svg>
